
<svg version="1.1" id="Isolation_Mode" xmlns="http://www.w3.org/2000/svg" xmlns:xlink="http://www.w3.org/1999/xlink" x="0px"
	 y="0px" viewBox="0 0 161 30" style="enable-background:new 0 0 161 30;" xml:space="preserve">
<style type="text/css">
	.st0{fill:#FFFFFF;}
	.st1{fill:#EB7701;}
</style>
<g>
	<path class="st0" d="M157.5,4.7c0-0.5-0.4-1-1-1c-0.3,0-0.5,0.1-0.7,0.3l-8.7,9.4c-0.2,0.2-0.3,0.4-0.3,0.7c0,0.5,0.4,1,1,1
		c0.3,0,0.6-0.1,0.8-0.4l8.6-9.3C157.3,5.2,157.5,4.9,157.5,4.7"/>
	<path class="st1" d="M3.5,4.6c0-0.5,0.4-1,1-1C4.8,3.7,5,3.8,5.2,4l0,0l8.7,9.4l0,0l0,0l0,0c0.1,0.2,0.2,0.4,0.2,0.6
		c0,0.5-0.4,1-1,1c-0.3,0-0.6-0.1-0.8-0.4L3.9,5.4l0,0C3.7,5.2,3.5,4.9,3.5,4.6"/>
	<path class="st1" d="M51.3,0.9c-0.5,0-1,0.4-1,1v23.4L33.1,1.4c-0.2-0.3-0.5-0.4-0.8-0.4c-0.5,0-1,0.4-1,1v26.4c0,0.5,0.4,1,1,1
		c0.5,0,1-0.4,1-1V4.9l17.2,23.9c0.2,0.3,0.5,0.5,0.8,0.5c0.5,0,1-0.4,1-1V1.9C52.2,1.4,51.8,0.9,51.3,0.9"/>
	<path class="st0" d="M94.8,2.3L94.8,2.3c0-0.1,0.1-0.2,0.1-0.4c0-0.5-0.4-1-1-1c-0.4,0-0.8,0.3-0.9,0.6v0L82.8,25.8L75.5,8.6
		C75.4,8.2,75,8,74.6,8c-0.4,0-0.8,0.2-0.9,0.6l-7.3,17.2L56.3,1.6l0,0l0,0h0c-0.2-0.3-0.5-0.6-0.9-0.6c-0.5,0-1,0.4-1,1
		c0,0.2,0,0.3,0.1,0.4l11,26.3c0.1,0.4,0.5,0.6,0.9,0.6c0.4,0,0.8-0.2,0.9-0.6l7.3-17.2l7.3,17.2l0,0l0,0c0.2,0.3,0.5,0.6,0.9,0.6
		c0.4,0,0.8-0.2,0.9-0.6L94.8,2.3L94.8,2.3L94.8,2.3z"/>
	<path class="st0" d="M134.3,27.3h-13.7V1.9c0-0.5-0.4-1-1-1c-0.5,0-1,0.4-1,1v26.4c0,0.5,0.4,1,1,1h14.6c0.5,0,1-0.4,1-1
		C135.3,27.8,134.8,27.3,134.3,27.3"/>
	<path class="st0" d="M113.1,27.3L113.1,27.3H99.5V16h11.7c0.5,0,1-0.4,1-1c0-0.5-0.4-1-1-1H99.5V2.9h13.6c0.5,0,1-0.4,1-1
		s-0.4-1-1-1H98.5c-0.5,0-1,0.4-1,1v26.4c0,0.5,0.4,1,1,1l0,0v0h14.6v0c0.5,0,1-0.4,1-1C114.1,27.8,113.7,27.3,113.1,27.3"/>
	<path class="st0" d="M157.7,6.2l-1.4,1.5c1.4,2.1,2.2,4.6,2.2,7.4c0,7-5.2,12.7-11.7,12.7c-6.5,0-11.7-5.7-11.7-12.7
		c0-7,5.2-12.7,11.7-12.7c2.6,0,4.9,0.9,6.9,2.4l1.3-1.4c-2.3-1.9-5.1-2.9-8.2-2.9c-7.5,0-13.7,6.6-13.7,14.6
		c0,8.1,6.1,14.6,13.7,14.6c7.5,0,13.7-6.6,13.7-14.6C160.5,11.7,159.5,8.6,157.7,6.2"/>
	<path class="st1" d="M14.2,0.4c-2.6,0-5,0.8-7,2.1c0.1,0,0.2-0.1,0.3-0.1c0.6,0,1,0.5,1,1c0,0.3-0.1,0.5-0.2,0.7
		C10,3,12,2.3,14.2,2.3C20.6,2.3,25.9,8,25.9,15c0,7-5.2,12.7-11.7,12.7C7.7,27.7,2.5,22,2.5,15c0-2.3,0.6-4.5,1.6-6.4
		C3.9,8.8,3.6,8.9,3.4,8.9c-0.6,0-1-0.5-1-1c0-0.1,0-0.2,0.1-0.3C1.2,9.7,0.5,12.3,0.5,15c0,8.1,6.1,14.6,13.7,14.6
		c7.5,0,13.7-6.6,13.7-14.6C27.8,6.9,21.7,0.4,14.2,0.4"/>
	<path class="st1" d="M7.5,2.4c-0.1,0-0.2,0-0.3,0.1C7,2.6,6.8,2.7,6.7,2.7C6.5,2.9,6.5,3.2,6.5,3.4c0,0.6,0.5,1,1,1
		c0.1,0,0.2,0,0.3-0.1c0.1-0.1,0.3-0.2,0.5-0.3c0.2-0.2,0.2-0.4,0.2-0.7C8.5,2.9,8,2.4,7.5,2.4"/>
	<path class="st1" d="M3.4,8.9c0.3,0,0.5-0.1,0.7-0.3C4.2,8.4,4.3,8.2,4.4,8l0-0.2c0-0.6-0.5-1-1-1C3.1,6.8,2.8,7,2.6,7.2
		C2.6,7.3,2.5,7.4,2.4,7.5c0,0.1-0.1,0.2-0.1,0.3C2.4,8.4,2.8,8.9,3.4,8.9"/>
	<path class="st1" d="M3.5,4.6c0-0.5,0.4-1,1-1c0.3,0,0.5,0.1,0.7,0.3l8.7,9.4c0.2,0.2,0.3,0.4,0.3,0.7c0,0.5-0.4,1-1,1
		c-0.3,0-0.6-0.1-0.8-0.4L3.8,5.3C3.7,5.2,3.5,4.9,3.5,4.6"/>
	<path class="st1" d="M3.3,6.2l1.4,1.5C3.3,9.7,2.5,12.2,2.5,15c0,7,5.2,12.7,11.7,12.7c6.5,0,11.7-5.7,11.7-12.7
		c0-7-5.2-12.7-11.7-12.7c-2.6,0-4.9,0.9-6.9,2.4L5.9,3.3c2.3-1.9,5.1-2.9,8.2-2.9c7.5,0,13.7,6.6,13.7,14.6
		c0,8.1-6.1,14.6-13.7,14.6C6.6,29.6,0.5,23.1,0.5,15C0.5,11.7,1.5,8.6,3.3,6.2"/>
</g>
</svg>
